<svg width="303" height="68" viewBox="0 0 303 68" fill="none" xmlns="http://www.w3.org/2000/svg">
    <g filter="url(#filter0_d_43_85)">
        <rect x="7" y="2" width="289" height="54" rx="27" fill="url(#paint0_linear_43_85)" shape-rendering="crispEdges" />
    </g>
    <path d="M135.235 33.625C135.235 33.2208 135.171 32.8641 135.044 32.555C134.926 32.238 134.712 31.9527 134.403 31.699C134.101 31.4454 133.681 31.2037 133.142 30.9738C132.611 30.744 131.938 30.5102 131.121 30.2724C130.265 30.0188 129.493 29.7374 128.803 29.4283C128.113 29.1113 127.523 28.7507 127.032 28.3465C126.54 27.9423 126.164 27.4786 125.902 26.9555C125.641 26.4324 125.51 25.834 125.51 25.1603C125.51 24.4866 125.649 23.8645 125.926 23.2938C126.203 22.7232 126.6 22.2278 127.115 21.8077C127.638 21.3798 128.26 21.0469 128.981 20.8091C129.703 20.5713 130.507 20.4524 131.395 20.4524C132.695 20.4524 133.796 20.7021 134.7 21.2014C135.611 21.6928 136.305 22.3388 136.78 23.1393C137.256 23.9318 137.494 24.7799 137.494 25.6834H135.211C135.211 25.0335 135.072 24.4589 134.795 23.9596C134.517 23.4523 134.097 23.056 133.535 22.7707C132.972 22.4775 132.259 22.3308 131.395 22.3308C130.578 22.3308 129.905 22.4537 129.374 22.6994C128.843 22.9451 128.446 23.278 128.185 23.698C127.931 24.1181 127.804 24.5976 127.804 25.1365C127.804 25.5011 127.88 25.834 128.03 26.1352C128.189 26.4284 128.43 26.7019 128.755 26.9555C129.088 27.2091 129.508 27.4429 130.016 27.6569C130.531 27.8709 131.145 28.077 131.858 28.2751C132.841 28.5525 133.689 28.8616 134.403 29.2024C135.116 29.5433 135.702 29.9277 136.162 30.3556C136.63 30.7757 136.974 31.2552 137.196 31.7942C137.426 32.3252 137.541 32.9275 137.541 33.6012C137.541 34.3066 137.398 34.9446 137.113 35.5153C136.828 36.0859 136.42 36.5734 135.889 36.9776C135.358 37.3818 134.72 37.6949 133.975 37.9168C133.237 38.1308 132.413 38.2378 131.502 38.2378C130.701 38.2378 129.913 38.1268 129.136 37.9049C128.367 37.683 127.666 37.3501 127.032 36.9063C126.405 36.4624 125.902 35.9155 125.522 35.2656C125.149 34.6078 124.963 33.8469 124.963 32.983H127.246C127.246 33.5774 127.361 34.0887 127.59 34.5166C127.82 34.9367 128.133 35.2854 128.53 35.5628C128.934 35.8402 129.389 36.0463 129.897 36.181C130.412 36.3079 130.947 36.3713 131.502 36.3713C132.302 36.3713 132.98 36.2603 133.535 36.0384C134.089 35.8165 134.51 35.4994 134.795 35.0873C135.088 34.6752 135.235 34.1877 135.235 33.625ZM145.471 38.2378C144.575 38.2378 143.763 38.0872 143.034 37.786C142.312 37.4769 141.69 37.045 141.167 36.4901C140.652 35.9353 140.256 35.2775 139.978 34.5166C139.701 33.7558 139.562 32.9236 139.562 32.02V31.5207C139.562 30.4745 139.717 29.5433 140.026 28.7269C140.335 27.9026 140.755 27.2052 141.286 26.6345C141.817 26.0639 142.419 25.6319 143.093 25.3387C143.767 25.0454 144.464 24.8988 145.185 24.8988C146.105 24.8988 146.897 25.0573 147.563 25.3743C148.237 25.6914 148.788 26.1352 149.216 26.7058C149.644 27.2686 149.961 27.9343 150.167 28.7031C150.373 29.464 150.476 30.2962 150.476 31.1997V32.1865H140.87V30.3913H148.276V30.2249C148.245 29.6542 148.126 29.0994 147.92 28.5605C147.722 28.0215 147.405 27.5777 146.969 27.2289C146.533 26.8802 145.938 26.7058 145.185 26.7058C144.686 26.7058 144.226 26.8128 143.806 27.0268C143.386 27.2329 143.026 27.542 142.725 27.9541C142.423 28.3663 142.19 28.8696 142.023 29.464C141.857 30.0584 141.773 30.744 141.773 31.5207V32.02C141.773 32.6303 141.857 33.2049 142.023 33.7439C142.197 34.2749 142.447 34.7425 142.772 35.1467C143.105 35.551 143.505 35.868 143.973 36.0978C144.448 36.3277 144.987 36.4426 145.59 36.4426C146.366 36.4426 147.024 36.2841 147.563 35.9671C148.102 35.65 148.574 35.226 148.978 34.695L150.309 35.7531C150.032 36.1731 149.679 36.5734 149.251 36.9538C148.823 37.3342 148.296 37.6433 147.67 37.8811C147.052 38.1189 146.319 38.2378 145.471 38.2378ZM155.243 27.8828V38H153.044V25.1365H155.124L155.243 27.8828ZM154.72 31.0808L153.805 31.0452C153.813 30.1654 153.943 29.353 154.197 28.608C154.451 27.8551 154.807 27.2012 155.267 26.6464C155.727 26.0916 156.274 25.6636 156.908 25.3624C157.55 25.0533 158.259 24.8988 159.036 24.8988C159.67 24.8988 160.24 24.986 160.748 25.1603C161.255 25.3268 161.687 25.5962 162.043 25.9688C162.408 26.3413 162.685 26.8247 162.876 27.4192C163.066 28.0057 163.161 28.7229 163.161 29.571V38H160.95V29.5472C160.95 28.8735 160.851 28.3346 160.653 27.9304C160.454 27.5182 160.165 27.221 159.785 27.0387C159.404 26.8485 158.937 26.7534 158.382 26.7534C157.835 26.7534 157.336 26.8683 156.884 27.0982C156.44 27.328 156.056 27.645 155.731 28.0493C155.414 28.4535 155.164 28.9171 154.982 29.4402C154.807 29.9554 154.72 30.5023 154.72 31.0808ZM174.61 35.5034V19.7391H176.821V38H174.8L174.61 35.5034ZM165.955 31.7109V31.4613C165.955 30.4785 166.074 29.5868 166.311 28.7863C166.557 27.9779 166.902 27.2844 167.346 26.7058C167.798 26.1273 168.333 25.6834 168.951 25.3743C169.577 25.0573 170.274 24.8988 171.043 24.8988C171.852 24.8988 172.557 25.0414 173.159 25.3268C173.77 25.6042 174.285 26.0123 174.705 26.5513C175.133 27.0823 175.47 27.7243 175.715 28.4772C175.961 29.2302 176.131 30.0822 176.227 31.0333V32.127C176.139 33.0702 175.969 33.9183 175.715 34.6712C175.47 35.4241 175.133 36.0661 174.705 36.5971C174.285 37.1282 173.77 37.5363 173.159 37.8217C172.549 38.0991 171.836 38.2378 171.019 38.2378C170.266 38.2378 169.577 38.0753 168.951 37.7503C168.333 37.4254 167.798 36.9697 167.346 36.3832C166.902 35.7966 166.557 35.1071 166.311 34.3145C166.074 33.514 165.955 32.6462 165.955 31.7109ZM168.166 31.4613V31.7109C168.166 32.3529 168.229 32.9553 168.356 33.518C168.491 34.0807 168.697 34.5761 168.975 35.0041C169.252 35.4321 169.605 35.7689 170.033 36.0146C170.461 36.2524 170.972 36.3713 171.566 36.3713C172.295 36.3713 172.894 36.2167 173.361 35.9076C173.837 35.5985 174.217 35.1903 174.503 34.6831C174.788 34.1758 175.01 33.625 175.168 33.0306V30.1654C175.073 29.7295 174.935 29.3094 174.752 28.9052C174.578 28.4931 174.348 28.1285 174.063 27.8115C173.785 27.4865 173.441 27.2289 173.029 27.0387C172.624 26.8485 172.145 26.7534 171.59 26.7534C170.988 26.7534 170.469 26.8802 170.033 27.1338C169.605 27.3795 169.252 27.7203 168.975 28.1563C168.697 28.5842 168.491 29.0836 168.356 29.6542C168.229 30.2169 168.166 30.8193 168.166 31.4613Z" fill="white" />
    <defs>
        <filter id="filter0_d_43_85" x="0" y="0" width="303" height="68" filterUnits="userSpaceOnUse" color-interpolation-filters="sRGB">
            <feFlood flood-opacity="0" result="BackgroundImageFix" />
            <feColorMatrix in="SourceAlpha" type="matrix" values="0 0 0 0 0 0 0 0 0 0 0 0 0 0 0 0 0 0 127 0" result="hardAlpha" />
            <feMorphology radius="1" operator="dilate" in="SourceAlpha" result="effect1_dropShadow_43_85" />
            <feOffset dy="5" />
            <feGaussianBlur stdDeviation="3" />
            <feComposite in2="hardAlpha" operator="out" />
            <feColorMatrix type="matrix" values="0 0 0 0 0 0 0 0 0 0 0 0 0 0 0 0 0 0 0.25 0" />
            <feBlend mode="normal" in2="BackgroundImageFix" result="effect1_dropShadow_43_85" />
            <feBlend mode="normal" in="SourceGraphic" in2="effect1_dropShadow_43_85" result="shape" />
        </filter>
        <linearGradient id="paint0_linear_43_85" x1="273" y1="-51.5" x2="152" y2="139" gradientUnits="userSpaceOnUse">
            <stop stop-color="#26F786" stop-opacity="0.79" />
            <stop offset="0.770833" stop-color="#123D7E" stop-opacity="0.7" />
        </linearGradient>
    </defs>
</svg>
    