<svg width="336" height="68" viewBox="0 0 336 68" fill="none" xmlns="http://www.w3.org/2000/svg">
    <g filter="url(#filter0_d_127_107)">
        <rect x="7" y="2" width="321.773" height="54" rx="27" fill="url(#paint0_linear_127_107)" shape-rendering="crispEdges" />
    </g>
    <path d="M90.4745 20.6902H96.2048C97.5047 20.6902 98.6024 20.8884 99.498 21.2846C100.402 21.6809 101.087 22.2674 101.555 23.0442C102.03 23.813 102.268 24.7601 102.268 25.8855C102.268 26.6781 102.106 27.4033 101.781 28.0611C101.464 28.7111 101.004 29.2659 100.402 29.7255C99.8071 30.1773 99.0938 30.5142 98.2616 30.7361L97.6196 30.9857H92.234L92.2103 29.1192H96.2762C97.1004 29.1192 97.786 28.9766 98.3329 28.6912C98.8798 28.398 99.2919 28.0057 99.5693 27.5143C99.8467 27.0229 99.9854 26.48 99.9854 25.8855C99.9854 25.2198 99.8546 24.6372 99.5931 24.1379C99.3315 23.6386 98.9194 23.2542 98.3567 22.9847C97.8019 22.7073 97.0846 22.5686 96.2048 22.5686H92.769V38H90.4745V20.6902ZM100.592 38L96.3832 30.1535L98.7728 30.1416L103.041 37.8573V38H100.592ZM110.483 38.2378C109.587 38.2378 108.775 38.0872 108.046 37.786C107.325 37.4769 106.702 37.045 106.179 36.4901C105.664 35.9353 105.268 35.2775 104.99 34.5166C104.713 33.7558 104.574 32.9236 104.574 32.02V31.5207C104.574 30.4745 104.729 29.5433 105.038 28.7269C105.347 27.9026 105.767 27.2052 106.298 26.6345C106.829 26.0639 107.432 25.6319 108.105 25.3387C108.779 25.0454 109.476 24.8988 110.198 24.8988C111.117 24.8988 111.91 25.0573 112.575 25.3743C113.249 25.6914 113.8 26.1352 114.228 26.7058C114.656 27.2686 114.973 27.9343 115.179 28.7031C115.385 29.464 115.488 30.2962 115.488 31.1997V32.1865H105.882V30.3913H113.289V30.2249C113.257 29.6542 113.138 29.0994 112.932 28.5605C112.734 28.0215 112.417 27.5777 111.981 27.2289C111.545 26.8802 110.951 26.7058 110.198 26.7058C109.698 26.7058 109.239 26.8128 108.819 27.0268C108.399 27.2329 108.038 27.542 107.737 27.9541C107.436 28.3663 107.202 28.8696 107.035 29.464C106.869 30.0584 106.786 30.744 106.786 31.5207V32.02C106.786 32.6303 106.869 33.2049 107.035 33.7439C107.21 34.2749 107.459 34.7425 107.784 35.1467C108.117 35.551 108.517 35.868 108.985 36.0978C109.461 36.3277 110 36.4426 110.602 36.4426C111.379 36.4426 112.036 36.2841 112.575 35.9671C113.114 35.65 113.586 35.226 113.99 34.695L115.322 35.7531C115.044 36.1731 114.692 36.5734 114.264 36.9538C113.836 37.3342 113.309 37.6433 112.682 37.8811C112.064 38.1189 111.331 38.2378 110.483 38.2378ZM125.546 34.588C125.546 34.2709 125.475 33.9777 125.332 33.7082C125.197 33.4308 124.916 33.1812 124.488 32.9592C124.068 32.7294 123.434 32.5313 122.586 32.3648C121.872 32.2142 121.226 32.0359 120.648 31.8298C120.077 31.6238 119.59 31.3741 119.185 31.0808C118.789 30.7876 118.484 30.4428 118.27 30.0465C118.056 29.6502 117.949 29.1866 117.949 28.6556C117.949 28.1483 118.06 27.6688 118.282 27.2171C118.512 26.7653 118.833 26.365 119.245 26.0163C119.665 25.6676 120.168 25.3941 120.755 25.196C121.341 24.9978 121.995 24.8988 122.716 24.8988C123.747 24.8988 124.626 25.0811 125.356 25.4457C126.085 25.8102 126.644 26.2977 127.032 26.9079C127.42 27.5103 127.614 28.18 127.614 28.9171H125.415C125.415 28.5605 125.308 28.2157 125.094 27.8828C124.888 27.542 124.583 27.2606 124.179 27.0387C123.782 26.8168 123.295 26.7058 122.716 26.7058C122.106 26.7058 121.611 26.801 121.23 26.9912C120.858 27.1735 120.584 27.4073 120.41 27.6926C120.244 27.9779 120.16 28.2791 120.16 28.5961C120.16 28.8339 120.2 29.0479 120.279 29.2381C120.366 29.4204 120.517 29.5908 120.731 29.7493C120.945 29.8999 121.246 30.0426 121.635 30.1773C122.023 30.312 122.518 30.4468 123.121 30.5815C124.175 30.8193 125.043 31.1046 125.724 31.4375C126.406 31.7704 126.913 32.1786 127.246 32.662C127.579 33.1455 127.745 33.732 127.745 34.4215C127.745 34.9843 127.626 35.4994 127.389 35.9671C127.159 36.4347 126.822 36.8389 126.378 37.1797C125.942 37.5126 125.419 37.7741 124.809 37.9643C124.206 38.1466 123.529 38.2378 122.776 38.2378C121.642 38.2378 120.683 38.0357 119.899 37.6315C119.114 37.2272 118.52 36.7041 118.115 36.0622C117.711 35.4202 117.509 34.7425 117.509 34.0292H119.72C119.752 34.6316 119.927 35.1111 120.244 35.4677C120.561 35.8165 120.949 36.0661 121.409 36.2167C121.868 36.3594 122.324 36.4307 122.776 36.4307C123.378 36.4307 123.881 36.3514 124.286 36.1929C124.698 36.0344 125.011 35.8165 125.225 35.5391C125.439 35.2617 125.546 34.9446 125.546 34.588ZM135.972 38.2378C135.077 38.2378 134.264 38.0872 133.535 37.786C132.814 37.4769 132.192 37.045 131.668 36.4901C131.153 35.9353 130.757 35.2775 130.48 34.5166C130.202 33.7558 130.064 32.9236 130.064 32.02V31.5207C130.064 30.4745 130.218 29.5433 130.527 28.7269C130.836 27.9026 131.256 27.2052 131.787 26.6345C132.318 26.0639 132.921 25.6319 133.594 25.3387C134.268 25.0454 134.966 24.8988 135.687 24.8988C136.606 24.8988 137.399 25.0573 138.065 25.3743C138.738 25.6914 139.289 26.1352 139.717 26.7058C140.145 27.2686 140.462 27.9343 140.668 28.7031C140.874 29.464 140.977 30.2962 140.977 31.1997V32.1865H131.371V30.3913H138.778V30.2249C138.746 29.6542 138.627 29.0994 138.421 28.5605C138.223 28.0215 137.906 27.5777 137.47 27.2289C137.034 26.8802 136.44 26.7058 135.687 26.7058C135.188 26.7058 134.728 26.8128 134.308 27.0268C133.888 27.2329 133.527 27.542 133.226 27.9541C132.925 28.3663 132.691 28.8696 132.524 29.464C132.358 30.0584 132.275 30.744 132.275 31.5207V32.02C132.275 32.6303 132.358 33.2049 132.524 33.7439C132.699 34.2749 132.948 34.7425 133.273 35.1467C133.606 35.551 134.007 35.868 134.474 36.0978C134.95 36.3277 135.489 36.4426 136.091 36.4426C136.868 36.4426 137.526 36.2841 138.065 35.9671C138.603 35.65 139.075 35.226 139.479 34.695L140.811 35.7531C140.533 36.1731 140.181 36.5734 139.753 36.9538C139.325 37.3342 138.798 37.6433 138.172 37.8811C137.553 38.1189 136.82 38.2378 135.972 38.2378ZM148.931 25.1365V26.8247H141.976V25.1365H148.931ZM144.33 22.0099H146.529V34.8139C146.529 35.2498 146.597 35.5787 146.731 35.8006C146.866 36.0225 147.04 36.1692 147.254 36.2405C147.468 36.3118 147.698 36.3475 147.944 36.3475C148.126 36.3475 148.316 36.3316 148.515 36.2999C148.721 36.2603 148.875 36.2286 148.978 36.2048L148.99 38C148.816 38.0555 148.586 38.107 148.301 38.1546C148.023 38.21 147.686 38.2378 147.29 38.2378C146.751 38.2378 146.256 38.1308 145.804 37.9168C145.352 37.7028 144.992 37.3461 144.722 36.8468C144.461 36.3396 144.33 35.6579 144.33 34.802V22.0099ZM165.206 20.6902L157.99 39.4861H156.1L163.328 20.6902H165.206ZM184.478 36.1335V38H175.823V36.1335H184.478ZM176.274 20.6902V38H173.98V20.6902H176.274ZM189.162 25.1365V38H186.95V25.1365H189.162ZM186.784 21.7245C186.784 21.3679 186.891 21.0667 187.105 20.821C187.327 20.5753 187.652 20.4524 188.08 20.4524C188.5 20.4524 188.821 20.5753 189.043 20.821C189.273 21.0667 189.388 21.3679 189.388 21.7245C189.388 22.0653 189.273 22.3586 189.043 22.6043C188.821 22.8421 188.5 22.9609 188.08 22.9609C187.652 22.9609 187.327 22.8421 187.105 22.6043C186.891 22.3586 186.784 22.0653 186.784 21.7245ZM194.88 27.6926V38H192.669V25.1365H194.761L194.88 27.6926ZM194.428 31.0808L193.406 31.0452C193.414 30.1654 193.529 29.353 193.751 28.608C193.973 27.8551 194.302 27.2012 194.737 26.6464C195.173 26.0916 195.716 25.6636 196.366 25.3624C197.016 25.0533 197.769 24.8988 198.625 24.8988C199.227 24.8988 199.782 24.986 200.289 25.1603C200.797 25.3268 201.237 25.5923 201.609 25.9569C201.982 26.3214 202.271 26.7891 202.477 27.3597C202.683 27.9304 202.786 28.6199 202.786 29.4283V38H200.587V29.5353C200.587 28.8616 200.472 28.3227 200.242 27.9185C200.02 27.5143 199.703 27.221 199.291 27.0387C198.879 26.8485 198.395 26.7534 197.84 26.7534C197.19 26.7534 196.648 26.8683 196.212 27.0982C195.776 27.328 195.427 27.645 195.165 28.0493C194.904 28.4535 194.714 28.9171 194.595 29.4402C194.484 29.9554 194.428 30.5023 194.428 31.0808ZM202.762 29.8682L201.288 30.32C201.296 29.6146 201.411 28.9369 201.633 28.287C201.863 27.6371 202.192 27.0585 202.62 26.5513C203.055 26.044 203.59 25.6438 204.225 25.3505C204.859 25.0494 205.584 24.8988 206.4 24.8988C207.09 24.8988 207.7 24.9899 208.231 25.1722C208.77 25.3545 209.222 25.6359 209.586 26.0163C209.959 26.3888 210.24 26.8683 210.43 27.4548C210.621 28.0413 210.716 28.7388 210.716 29.5472V38H208.504V29.5234C208.504 28.8022 208.389 28.2434 208.16 27.8471C207.938 27.4429 207.621 27.1616 207.209 27.0031C206.804 26.8366 206.321 26.7534 205.758 26.7534C205.275 26.7534 204.847 26.8366 204.474 27.0031C204.102 27.1695 203.789 27.3993 203.535 27.6926C203.281 27.9779 203.087 28.3068 202.952 28.6793C202.826 29.0519 202.762 29.4481 202.762 29.8682ZM216.244 27.6094V42.9457H214.033V25.1365H216.054L216.244 27.6094ZM224.911 31.4613V31.7109C224.911 32.6462 224.8 33.514 224.578 34.3145C224.356 35.1071 224.031 35.7966 223.603 36.3832C223.183 36.9697 222.664 37.4254 222.046 37.7503C221.427 38.0753 220.718 38.2378 219.917 38.2378C219.101 38.2378 218.38 38.103 217.754 37.8336C217.128 37.5641 216.597 37.1718 216.161 36.6566C215.725 36.1414 215.376 35.5232 215.114 34.802C214.861 34.0807 214.686 33.2683 214.591 32.3648V31.0333C214.686 30.0822 214.865 29.2302 215.126 28.4772C215.388 27.7243 215.733 27.0823 216.161 26.5513C216.597 26.0123 217.124 25.6042 217.742 25.3268C218.36 25.0414 219.073 24.8988 219.882 24.8988C220.69 24.8988 221.407 25.0573 222.034 25.3743C222.66 25.6834 223.187 26.1273 223.615 26.7058C224.043 27.2844 224.364 27.9779 224.578 28.7863C224.8 29.5868 224.911 30.4785 224.911 31.4613ZM222.699 31.7109V31.4613C222.699 30.8193 222.632 30.2169 222.497 29.6542C222.363 29.0836 222.153 28.5842 221.867 28.1563C221.59 27.7203 221.233 27.3795 220.797 27.1338C220.361 26.8802 219.842 26.7534 219.24 26.7534C218.685 26.7534 218.202 26.8485 217.789 27.0387C217.385 27.2289 217.04 27.4865 216.755 27.8115C216.47 28.1285 216.236 28.4931 216.054 28.9052C215.879 29.3094 215.749 29.7295 215.661 30.1654V33.2446C215.82 33.7994 216.042 34.3225 216.327 34.8139C216.612 35.2973 216.993 35.6897 217.468 35.9908C217.944 36.2841 218.542 36.4307 219.264 36.4307C219.858 36.4307 220.369 36.3079 220.797 36.0622C221.233 35.8085 221.59 35.4638 221.867 35.0279C222.153 34.5919 222.363 34.0926 222.497 33.5299C222.632 32.9592 222.699 32.3529 222.699 31.7109ZM235.301 35.8006V29.1787C235.301 28.6714 235.198 28.2315 234.992 27.859C234.794 27.4786 234.493 27.1853 234.089 26.9793C233.684 26.7732 233.185 26.6702 232.591 26.6702C232.036 26.6702 231.548 26.7653 231.128 26.9555C230.716 27.1457 230.391 27.3954 230.154 27.7045C229.924 28.0136 229.809 28.3465 229.809 28.7031H227.609C227.609 28.2434 227.728 27.7877 227.966 27.3359C228.204 26.8842 228.545 26.476 228.988 26.1114C229.44 25.7389 229.979 25.4457 230.605 25.2317C231.239 25.0097 231.945 24.8988 232.721 24.8988C233.657 24.8988 234.481 25.0573 235.194 25.3743C235.916 25.6914 236.478 26.1709 236.882 26.8128C237.295 27.4469 237.501 28.2434 237.501 29.2024V35.1943C237.501 35.6223 237.536 36.078 237.608 36.5615C237.687 37.045 237.802 37.4611 237.952 37.8098V38H235.658C235.547 37.7464 235.46 37.4095 235.396 36.9895C235.333 36.5615 235.301 36.1652 235.301 35.8006ZM235.682 30.2011L235.706 31.7466H233.482C232.856 31.7466 232.297 31.7981 231.806 31.9012C231.315 31.9963 230.903 32.1429 230.57 32.341C230.237 32.5392 229.983 32.7888 229.809 33.09C229.634 33.3833 229.547 33.728 229.547 34.1243C229.547 34.5285 229.638 34.8971 229.821 35.23C230.003 35.5628 230.276 35.8284 230.641 36.0265C231.013 36.2167 231.469 36.3118 232.008 36.3118C232.682 36.3118 233.276 36.1692 233.791 35.8838C234.307 35.5985 234.715 35.2498 235.016 34.8376C235.325 34.4255 235.492 34.0252 235.515 33.6369L236.454 34.695C236.399 35.0279 236.248 35.3964 236.003 35.8006C235.757 36.2048 235.428 36.5932 235.016 36.9657C234.612 37.3303 234.128 37.6354 233.566 37.8811C233.011 38.1189 232.385 38.2378 231.687 38.2378C230.815 38.2378 230.051 38.0674 229.393 37.7266C228.743 37.3858 228.236 36.93 227.871 36.3594C227.514 35.7808 227.336 35.1349 227.336 34.4215C227.336 33.732 227.471 33.1257 227.74 32.6026C228.01 32.0716 228.398 31.6317 228.905 31.2829C229.412 30.9263 230.023 30.6568 230.736 30.4745C231.449 30.2922 232.246 30.2011 233.126 30.2011H235.682ZM243.16 27.1576V38H240.96V25.1365H243.1L243.16 27.1576ZM247.178 25.0652L247.166 27.1101C246.984 27.0704 246.809 27.0466 246.643 27.0387C246.484 27.0229 246.302 27.0149 246.096 27.0149C245.589 27.0149 245.141 27.0942 244.753 27.2527C244.364 27.4112 244.035 27.6332 243.766 27.9185C243.496 28.2038 243.282 28.5446 243.124 28.9409C242.973 29.3293 242.874 29.7572 242.827 30.2249L242.209 30.5815C242.209 29.8048 242.284 29.0756 242.434 28.394C242.593 27.7124 242.835 27.1101 243.16 26.587C243.485 26.0559 243.897 25.6438 244.396 25.3505C244.903 25.0494 245.506 24.8988 246.203 24.8988C246.362 24.8988 246.544 24.9186 246.75 24.9582C246.956 24.9899 247.099 25.0256 247.178 25.0652Z" fill="white" />
    <defs>
        <filter id="filter0_d_127_107" x="0" y="0" width="335.773" height="68" filterUnits="userSpaceOnUse" color-interpolation-filters="sRGB">
            <feFlood flood-opacity="0" result="BackgroundImageFix" />
            <feColorMatrix in="SourceAlpha" type="matrix" values="0 0 0 0 0 0 0 0 0 0 0 0 0 0 0 0 0 0 127 0" result="hardAlpha" />
            <feMorphology radius="1" operator="dilate" in="SourceAlpha" result="effect1_dropShadow_127_107" />
            <feOffset dy="5" />
            <feGaussianBlur stdDeviation="3" />
            <feComposite in2="hardAlpha" operator="out" />
            <feColorMatrix type="matrix" values="0 0 0 0 0 0 0 0 0 0 0 0 0 0 0 0 0 0 0.25 0" />
            <feBlend mode="normal" in2="BackgroundImageFix" result="effect1_dropShadow_127_107" />
            <feBlend mode="normal" in="SourceGraphic" in2="effect1_dropShadow_127_107" result="shape" />
        </filter>
        <linearGradient id="paint0_linear_127_107" x1="303.165" y1="-51.5" x2="188.094" y2="150.21" gradientUnits="userSpaceOnUse">
            <stop stop-color="#26F786" stop-opacity="0.79" />
            <stop offset="0.770833" stop-color="#123D7E" stop-opacity="0.7" />
        </linearGradient>
    </defs>
</svg>
    