<svg width="336" height="68" viewBox="0 0 336 68" fill="none" xmlns="http://www.w3.org/2000/svg">
    <g filter="url(#filter0_d_127_107)">
        <rect x="7" y="2" width="321.773" height="54" rx="27" fill="url(#paint0_linear_127_107)" shape-rendering="crispEdges" />
    </g>
    <path d="M123.407 33.625C123.407 33.2208 123.343 32.8641 123.216 32.555C123.097 32.238 122.883 31.9527 122.574 31.699C122.273 31.4454 121.853 31.2037 121.314 30.9738C120.783 30.744 120.109 30.5102 119.293 30.2724C118.437 30.0188 117.664 29.7374 116.975 29.4283C116.285 29.1113 115.695 28.7507 115.203 28.3465C114.712 27.9423 114.336 27.4786 114.074 26.9555C113.813 26.4324 113.682 25.834 113.682 25.1603C113.682 24.4866 113.82 23.8645 114.098 23.2938C114.375 22.7232 114.772 22.2278 115.287 21.8077C115.81 21.3798 116.432 21.0469 117.153 20.8091C117.874 20.5713 118.679 20.4524 119.567 20.4524C120.866 20.4524 121.968 20.7021 122.872 21.2014C123.783 21.6928 124.477 22.3388 124.952 23.1393C125.428 23.9318 125.665 24.7799 125.665 25.6834H123.383C123.383 25.0335 123.244 24.4589 122.967 23.9596C122.689 23.4523 122.269 23.056 121.707 22.7707C121.144 22.4775 120.43 22.3308 119.567 22.3308C118.75 22.3308 118.077 22.4537 117.546 22.6994C117.014 22.9451 116.618 23.278 116.357 23.698C116.103 24.1181 115.976 24.5976 115.976 25.1365C115.976 25.5011 116.052 25.834 116.202 26.1352C116.361 26.4284 116.602 26.7019 116.927 26.9555C117.26 27.2091 117.68 27.4429 118.188 27.6569C118.703 27.8709 119.317 28.077 120.03 28.2751C121.013 28.5525 121.861 28.8616 122.574 29.2024C123.288 29.5433 123.874 29.9277 124.334 30.3556C124.802 30.7757 125.146 31.2552 125.368 31.7942C125.598 32.3252 125.713 32.9275 125.713 33.6012C125.713 34.3066 125.57 34.9446 125.285 35.5153C125 36.0859 124.591 36.5734 124.06 36.9776C123.529 37.3818 122.891 37.6949 122.146 37.9168C121.409 38.1308 120.585 38.2378 119.674 38.2378C118.873 38.2378 118.084 38.1268 117.308 37.9049C116.539 37.683 115.838 37.3501 115.203 36.9063C114.577 36.4624 114.074 35.9155 113.694 35.2656C113.321 34.6078 113.135 33.8469 113.135 32.983H115.417C115.417 33.5774 115.532 34.0887 115.762 34.5166C115.992 34.9367 116.305 35.2854 116.701 35.5628C117.106 35.8402 117.561 36.0463 118.069 36.181C118.584 36.3079 119.119 36.3713 119.674 36.3713C120.474 36.3713 121.152 36.2603 121.707 36.0384C122.261 35.8165 122.681 35.4994 122.967 35.0873C123.26 34.6752 123.407 34.1877 123.407 33.625ZM133.643 38.2378C132.747 38.2378 131.935 38.0872 131.206 37.786C130.484 37.4769 129.862 37.045 129.339 36.4901C128.824 35.9353 128.428 35.2775 128.15 34.5166C127.873 33.7558 127.734 32.9236 127.734 32.02V31.5207C127.734 30.4745 127.889 29.5433 128.198 28.7269C128.507 27.9026 128.927 27.2052 129.458 26.6345C129.989 26.0639 130.591 25.6319 131.265 25.3387C131.939 25.0454 132.636 24.8988 133.357 24.8988C134.277 24.8988 135.069 25.0573 135.735 25.3743C136.409 25.6914 136.96 26.1352 137.388 26.7058C137.816 27.2686 138.133 27.9343 138.339 28.7031C138.545 29.464 138.648 30.2962 138.648 31.1997V32.1865H129.042V30.3913H136.448V30.2249C136.417 29.6542 136.298 29.0994 136.092 28.5605C135.894 28.0215 135.577 27.5777 135.141 27.2289C134.705 26.8802 134.11 26.7058 133.357 26.7058C132.858 26.7058 132.398 26.8128 131.978 27.0268C131.558 27.2329 131.198 27.542 130.896 27.9541C130.595 28.3663 130.361 28.8696 130.195 29.464C130.029 30.0584 129.945 30.744 129.945 31.5207V32.02C129.945 32.6303 130.029 33.2049 130.195 33.7439C130.369 34.2749 130.619 34.7425 130.944 35.1467C131.277 35.551 131.677 35.868 132.145 36.0978C132.62 36.3277 133.159 36.4426 133.762 36.4426C134.538 36.4426 135.196 36.2841 135.735 35.9671C136.274 35.65 136.746 35.226 137.15 34.695L138.481 35.7531C138.204 36.1731 137.851 36.5734 137.423 36.9538C136.995 37.3342 136.468 37.6433 135.842 37.8811C135.224 38.1189 134.491 38.2378 133.643 38.2378ZM143.415 27.8828V38H141.216V25.1365H143.296L143.415 27.8828ZM142.892 31.0808L141.977 31.0452C141.984 30.1654 142.115 29.353 142.369 28.608C142.623 27.8551 142.979 27.2012 143.439 26.6464C143.899 26.0916 144.445 25.6636 145.079 25.3624C145.721 25.0533 146.431 24.8988 147.208 24.8988C147.842 24.8988 148.412 24.986 148.919 25.1603C149.427 25.3268 149.859 25.5962 150.215 25.9688C150.58 26.3413 150.857 26.8247 151.048 27.4192C151.238 28.0057 151.333 28.7229 151.333 29.571V38H149.122V29.5472C149.122 28.8735 149.023 28.3346 148.824 27.9304C148.626 27.5182 148.337 27.221 147.957 27.0387C147.576 26.8485 147.108 26.7534 146.554 26.7534C146.007 26.7534 145.507 26.8683 145.056 27.0982C144.612 27.328 144.227 27.645 143.903 28.0493C143.585 28.4535 143.336 28.9171 143.154 29.4402C142.979 29.9554 142.892 30.5023 142.892 31.0808ZM162.782 35.5034V19.7391H164.993V38H162.972L162.782 35.5034ZM154.127 31.7109V31.4613C154.127 30.4785 154.246 29.5868 154.483 28.7863C154.729 27.9779 155.074 27.2844 155.518 26.7058C155.969 26.1273 156.504 25.6834 157.123 25.3743C157.749 25.0573 158.446 24.8988 159.215 24.8988C160.023 24.8988 160.729 25.0414 161.331 25.3268C161.941 25.6042 162.457 26.0123 162.877 26.5513C163.305 27.0823 163.642 27.7243 163.887 28.4772C164.133 29.2302 164.303 30.0822 164.398 31.0333V32.127C164.311 33.0702 164.141 33.9183 163.887 34.6712C163.642 35.4241 163.305 36.0661 162.877 36.5971C162.457 37.1282 161.941 37.5363 161.331 37.8217C160.721 38.0991 160.008 38.2378 159.191 38.2378C158.438 38.2378 157.749 38.0753 157.123 37.7503C156.504 37.4254 155.969 36.9697 155.518 36.3832C155.074 35.7966 154.729 35.1071 154.483 34.3145C154.246 33.514 154.127 32.6462 154.127 31.7109ZM156.338 31.4613V31.7109C156.338 32.3529 156.401 32.9553 156.528 33.518C156.663 34.0807 156.869 34.5761 157.146 35.0041C157.424 35.4321 157.776 35.7689 158.204 36.0146C158.632 36.2524 159.144 36.3713 159.738 36.3713C160.467 36.3713 161.066 36.2167 161.533 35.9076C162.009 35.5985 162.389 35.1903 162.675 34.6831C162.96 34.1758 163.182 33.625 163.34 33.0306V30.1654C163.245 29.7295 163.107 29.3094 162.924 28.9052C162.75 28.4931 162.52 28.1285 162.235 27.8115C161.957 27.4865 161.613 27.2289 161.2 27.0387C160.796 26.8485 160.317 26.7534 159.762 26.7534C159.16 26.7534 158.64 26.8802 158.204 27.1338C157.776 27.3795 157.424 27.7203 157.146 28.1563C156.869 28.5842 156.663 29.0836 156.528 29.6542C156.401 30.2169 156.338 30.8193 156.338 31.4613ZM176.656 27.1576V38H174.456V25.1365H176.596L176.656 27.1576ZM180.674 25.0652L180.662 27.1101C180.48 27.0704 180.305 27.0466 180.139 27.0387C179.98 27.0229 179.798 27.0149 179.592 27.0149C179.085 27.0149 178.637 27.0942 178.249 27.2527C177.86 27.4112 177.531 27.6332 177.262 27.9185C176.992 28.2038 176.778 28.5446 176.62 28.9409C176.469 29.3293 176.37 29.7572 176.323 30.2249L175.704 30.5815C175.704 29.8048 175.78 29.0756 175.93 28.394C176.089 27.7124 176.331 27.1101 176.656 26.587C176.981 26.0559 177.393 25.6438 177.892 25.3505C178.399 25.0494 179.002 24.8988 179.699 24.8988C179.858 24.8988 180.04 24.9186 180.246 24.9582C180.452 24.9899 180.595 25.0256 180.674 25.0652ZM187.807 38.2378C186.911 38.2378 186.099 38.0872 185.37 37.786C184.649 37.4769 184.026 37.045 183.503 36.4901C182.988 35.9353 182.592 35.2775 182.315 34.5166C182.037 33.7558 181.898 32.9236 181.898 32.02V31.5207C181.898 30.4745 182.053 29.5433 182.362 28.7269C182.671 27.9026 183.091 27.2052 183.622 26.6345C184.153 26.0639 184.756 25.6319 185.429 25.3387C186.103 25.0454 186.8 24.8988 187.522 24.8988C188.441 24.8988 189.234 25.0573 189.899 25.3743C190.573 25.6914 191.124 26.1352 191.552 26.7058C191.98 27.2686 192.297 27.9343 192.503 28.7031C192.709 29.464 192.812 30.2962 192.812 31.1997V32.1865H183.206V30.3913H190.613V30.2249C190.581 29.6542 190.462 29.0994 190.256 28.5605C190.058 28.0215 189.741 27.5777 189.305 27.2289C188.869 26.8802 188.275 26.7058 187.522 26.7058C187.022 26.7058 186.563 26.8128 186.143 27.0268C185.723 27.2329 185.362 27.542 185.061 27.9541C184.76 28.3663 184.526 28.8696 184.359 29.464C184.193 30.0584 184.11 30.744 184.11 31.5207V32.02C184.11 32.6303 184.193 33.2049 184.359 33.7439C184.534 34.2749 184.783 34.7425 185.108 35.1467C185.441 35.551 185.841 35.868 186.309 36.0978C186.785 36.3277 187.324 36.4426 187.926 36.4426C188.703 36.4426 189.361 36.2841 189.899 35.9671C190.438 35.65 190.91 35.226 191.314 34.695L192.646 35.7531C192.368 36.1731 192.016 36.5734 191.588 36.9538C191.16 37.3342 190.633 37.6433 190.006 37.8811C189.388 38.1189 188.655 38.2378 187.807 38.2378ZM197.579 27.6094V42.9457H195.368V25.1365H197.389L197.579 27.6094ZM206.246 31.4613V31.7109C206.246 32.6462 206.135 33.514 205.913 34.3145C205.691 35.1071 205.366 35.7966 204.939 36.3832C204.518 36.9697 203.999 37.4254 203.381 37.7503C202.763 38.0753 202.054 38.2378 201.253 38.2378C200.437 38.2378 199.715 38.103 199.089 37.8336C198.463 37.5641 197.932 37.1718 197.496 36.6566C197.06 36.1414 196.712 35.5232 196.45 34.802C196.196 34.0807 196.022 33.2683 195.927 32.3648V31.0333C196.022 30.0822 196.2 29.2302 196.462 28.4772C196.723 27.7243 197.068 27.0823 197.496 26.5513C197.932 26.0123 198.459 25.6042 199.077 25.3268C199.696 25.0414 200.409 24.8988 201.217 24.8988C202.026 24.8988 202.743 25.0573 203.369 25.3743C203.995 25.6834 204.522 26.1273 204.95 26.7058C205.378 27.2844 205.699 27.9779 205.913 28.7863C206.135 29.5868 206.246 30.4785 206.246 31.4613ZM204.035 31.7109V31.4613C204.035 30.8193 203.968 30.2169 203.833 29.6542C203.698 29.0836 203.488 28.5842 203.203 28.1563C202.925 27.7203 202.569 27.3795 202.133 27.1338C201.697 26.8802 201.178 26.7534 200.575 26.7534C200.021 26.7534 199.537 26.8485 199.125 27.0387C198.721 27.2289 198.376 27.4865 198.091 27.8115C197.805 28.1285 197.572 28.4931 197.389 28.9052C197.215 29.3094 197.084 29.7295 196.997 30.1654V33.2446C197.155 33.7994 197.377 34.3225 197.663 34.8139C197.948 35.2973 198.328 35.6897 198.804 35.9908C199.28 36.2841 199.878 36.4307 200.599 36.4307C201.194 36.4307 201.705 36.3079 202.133 36.0622C202.569 35.8085 202.925 35.4638 203.203 35.0279C203.488 34.5919 203.698 34.0926 203.833 33.5299C203.968 32.9592 204.035 32.3529 204.035 31.7109ZM211.442 19.7391V38H209.23V19.7391H211.442ZM218.587 36.6685L222.165 25.1365H224.519L219.359 39.9854C219.24 40.3024 219.082 40.6432 218.884 41.0078C218.694 41.3803 218.448 41.733 218.147 42.0659C217.846 42.3988 217.481 42.6683 217.053 42.8743C216.633 43.0883 216.13 43.1953 215.543 43.1953C215.369 43.1953 215.147 43.1715 214.877 43.124C214.608 43.0764 214.418 43.0368 214.307 43.0051L214.295 41.2218C214.358 41.2297 214.457 41.2377 214.592 41.2456C214.735 41.2614 214.834 41.2694 214.889 41.2694C215.389 41.2694 215.813 41.202 216.161 41.0673C216.51 40.9404 216.803 40.7225 217.041 40.4134C217.287 40.1122 217.497 39.6961 217.671 39.1651L218.587 36.6685ZM215.959 25.1365L219.3 35.123L219.871 37.4412L218.289 38.2497L213.558 25.1365H215.959Z" fill="white" />
    <defs>
        <filter id="filter0_d_127_107" x="0" y="0" width="335.773" height="68" filterUnits="userSpaceOnUse" color-interpolation-filters="sRGB">
            <feFlood flood-opacity="0" result="BackgroundImageFix" />
            <feColorMatrix in="SourceAlpha" type="matrix" values="0 0 0 0 0 0 0 0 0 0 0 0 0 0 0 0 0 0 127 0" result="hardAlpha" />
            <feMorphology radius="1" operator="dilate" in="SourceAlpha" result="effect1_dropShadow_127_107" />
            <feOffset dy="5" />
            <feGaussianBlur stdDeviation="3" />
            <feComposite in2="hardAlpha" operator="out" />
            <feColorMatrix type="matrix" values="0 0 0 0 0 0 0 0 0 0 0 0 0 0 0 0 0 0 0.25 0" />
            <feBlend mode="normal" in2="BackgroundImageFix" result="effect1_dropShadow_127_107" />
            <feBlend mode="normal" in="SourceGraphic" in2="effect1_dropShadow_127_107" result="shape" />
        </filter>
        <linearGradient id="paint0_linear_127_107" x1="303.165" y1="-51.5" x2="188.094" y2="150.21" gradientUnits="userSpaceOnUse">
            <stop stop-color="#26F786" stop-opacity="0.79" />
            <stop offset="0.770833" stop-color="#123D7E" stop-opacity="0.7" />
        </linearGradient>
    </defs>
</svg>
    