<svg width="336" height="68" viewBox="0 0 336 68" fill="none" xmlns="http://www.w3.org/2000/svg">
    <g filter="url(#filter0_d_57_1017)">
        <rect x="7.1134" y="2" width="321.773" height="54" rx="27" fill="url(#paint0_linear_57_1017)" shape-rendering="crispEdges" />
    </g>
    <path d="M83.5834 36.1335V38H74.4173V36.1335H83.5834ZM74.881 20.6902V38H72.5865V20.6902H74.881ZM82.3708 28.1325V29.999H74.4173V28.1325H82.3708ZM83.4645 20.6902V22.5686H74.4173V20.6902H83.4645ZM88.2913 27.8828V38H86.0919V25.1365H88.1724L88.2913 27.8828ZM87.7682 31.0808L86.8528 31.0452C86.8607 30.1654 86.9915 29.353 87.2451 28.608C87.4987 27.8551 87.8554 27.2012 88.3151 26.6464C88.7748 26.0916 89.3217 25.6636 89.9557 25.3624C90.5977 25.0533 91.307 24.8988 92.0838 24.8988C92.7178 24.8988 93.2885 24.986 93.7957 25.1603C94.303 25.3268 94.7349 25.5962 95.0916 25.9688C95.4562 26.3413 95.7336 26.8247 95.9238 27.4192C96.114 28.0057 96.2091 28.7229 96.2091 29.571V38H93.9978V29.5472C93.9978 28.8735 93.8988 28.3346 93.7006 27.9304C93.5025 27.5182 93.2132 27.221 92.8327 27.0387C92.4523 26.8485 91.9847 26.7534 91.4299 26.7534C90.883 26.7534 90.3837 26.8683 89.9319 27.0982C89.4881 27.328 89.1037 27.645 88.7787 28.0493C88.4617 28.4535 88.2121 28.9171 88.0298 29.4402C87.8554 29.9554 87.7682 30.5023 87.7682 31.0808ZM103.461 36.0146L106.98 25.1365H109.227L104.602 38H103.128L103.461 36.0146ZM100.525 25.1365L104.151 36.074L104.4 38H102.926L98.2658 25.1365H100.525ZM113.733 25.1365V38H111.522V25.1365H113.733ZM111.355 21.7245C111.355 21.3679 111.462 21.0667 111.676 20.821C111.898 20.5753 112.223 20.4524 112.651 20.4524C113.071 20.4524 113.392 20.5753 113.614 20.821C113.844 21.0667 113.959 21.3679 113.959 21.7245C113.959 22.0653 113.844 22.3586 113.614 22.6043C113.392 22.8421 113.071 22.9609 112.651 22.9609C112.223 22.9609 111.898 22.8421 111.676 22.6043C111.462 22.3586 111.355 22.0653 111.355 21.7245ZM124.849 35.8006V29.1787C124.849 28.6714 124.746 28.2315 124.54 27.859C124.341 27.4786 124.04 27.1853 123.636 26.9793C123.232 26.7732 122.733 26.6702 122.138 26.6702C121.583 26.6702 121.096 26.7653 120.676 26.9555C120.264 27.1457 119.939 27.3954 119.701 27.7045C119.471 28.0136 119.356 28.3465 119.356 28.7031H117.157C117.157 28.2434 117.276 27.7877 117.513 27.3359C117.751 26.8842 118.092 26.476 118.536 26.1114C118.988 25.7389 119.527 25.4457 120.153 25.2317C120.787 25.0097 121.492 24.8988 122.269 24.8988C123.204 24.8988 124.028 25.0573 124.742 25.3743C125.463 25.6914 126.026 26.1709 126.43 26.8128C126.842 27.4469 127.048 28.2434 127.048 29.2024V35.1943C127.048 35.6223 127.084 36.078 127.155 36.5615C127.234 37.045 127.349 37.4611 127.5 37.8098V38H125.205C125.094 37.7464 125.007 37.4095 124.944 36.9895C124.88 36.5615 124.849 36.1652 124.849 35.8006ZM125.229 30.2011L125.253 31.7466H123.03C122.404 31.7466 121.845 31.7981 121.353 31.9012C120.862 31.9963 120.45 32.1429 120.117 32.341C119.784 32.5392 119.531 32.7888 119.356 33.09C119.182 33.3833 119.095 33.728 119.095 34.1243C119.095 34.5285 119.186 34.8971 119.368 35.23C119.55 35.5628 119.824 35.8284 120.188 36.0265C120.561 36.2167 121.017 36.3118 121.556 36.3118C122.229 36.3118 122.824 36.1692 123.339 35.8838C123.854 35.5985 124.262 35.2498 124.563 34.8376C124.872 34.4255 125.039 34.0252 125.063 33.6369L126.002 34.695C125.946 35.0279 125.796 35.3964 125.55 35.8006C125.304 36.2048 124.976 36.5932 124.563 36.9657C124.159 37.3303 123.676 37.6354 123.113 37.8811C122.558 38.1189 121.932 38.2378 121.235 38.2378C120.363 38.2378 119.598 38.0674 118.94 37.7266C118.29 37.3858 117.783 36.93 117.418 36.3594C117.062 35.7808 116.883 35.1349 116.883 34.4215C116.883 33.732 117.018 33.1257 117.288 32.6026C117.557 32.0716 117.945 31.6317 118.453 31.2829C118.96 30.9263 119.57 30.6568 120.283 30.4745C120.997 30.2922 121.793 30.2011 122.673 30.2011H125.229ZM132.707 27.1576V38H130.508V25.1365H132.648L132.707 27.1576ZM136.725 25.0652L136.714 27.1101C136.531 27.0704 136.357 27.0466 136.19 27.0387C136.032 27.0229 135.85 27.0149 135.644 27.0149C135.136 27.0149 134.688 27.0942 134.3 27.2527C133.912 27.4112 133.583 27.6332 133.313 27.9185C133.044 28.2038 132.83 28.5446 132.671 28.9409C132.521 29.3293 132.422 29.7572 132.374 30.2249L131.756 30.5815C131.756 29.8048 131.831 29.0756 131.982 28.394C132.14 27.7124 132.382 27.1101 132.707 26.587C133.032 26.0559 133.444 25.6438 133.943 25.3505C134.451 25.0494 135.053 24.8988 135.751 24.8988C135.909 24.8988 136.091 24.9186 136.297 24.9582C136.503 24.9899 136.646 25.0256 136.725 25.0652ZM145.131 20.6902H150.861C152.161 20.6902 153.258 20.8884 154.154 21.2846C155.058 21.6809 155.743 22.2674 156.211 23.0442C156.686 23.813 156.924 24.7601 156.924 25.8855C156.924 26.6781 156.762 27.4033 156.437 28.0611C156.12 28.7111 155.66 29.2659 155.058 29.7255C154.463 30.1773 153.75 30.5142 152.918 30.7361L152.276 30.9857H146.89L146.866 29.1192H150.932C151.757 29.1192 152.442 28.9766 152.989 28.6912C153.536 28.398 153.948 28.0057 154.225 27.5143C154.503 27.0229 154.642 26.48 154.642 25.8855C154.642 25.2198 154.511 24.6372 154.249 24.1379C153.988 23.6386 153.575 23.2542 153.013 22.9847C152.458 22.7073 151.741 22.5686 150.861 22.5686H147.425V38H145.131V20.6902ZM155.248 38L151.039 30.1535L153.429 30.1416L157.697 37.8573V38H155.248ZM165.139 38.2378C164.244 38.2378 163.431 38.0872 162.702 37.786C161.981 37.4769 161.359 37.045 160.835 36.4901C160.32 35.9353 159.924 35.2775 159.647 34.5166C159.369 33.7558 159.231 32.9236 159.231 32.02V31.5207C159.231 30.4745 159.385 29.5433 159.694 28.7269C160.003 27.9026 160.423 27.2052 160.954 26.6345C161.485 26.0639 162.088 25.6319 162.761 25.3387C163.435 25.0454 164.133 24.8988 164.854 24.8988C165.773 24.8988 166.566 25.0573 167.232 25.3743C167.905 25.6914 168.456 26.1352 168.884 26.7058C169.312 27.2686 169.629 27.9343 169.835 28.7031C170.041 29.464 170.144 30.2962 170.144 31.1997V32.1865H160.538V30.3913H167.945V30.2249C167.913 29.6542 167.794 29.0994 167.588 28.5605C167.39 28.0215 167.073 27.5777 166.637 27.2289C166.201 26.8802 165.607 26.7058 164.854 26.7058C164.354 26.7058 163.895 26.8128 163.475 27.0268C163.055 27.2329 162.694 27.542 162.393 27.9541C162.092 28.3663 161.858 28.8696 161.691 29.464C161.525 30.0584 161.442 30.744 161.442 31.5207V32.02C161.442 32.6303 161.525 33.2049 161.691 33.7439C161.866 34.2749 162.115 34.7425 162.44 35.1467C162.773 35.551 163.174 35.868 163.641 36.0978C164.117 36.3277 164.656 36.4426 165.258 36.4426C166.035 36.4426 166.693 36.2841 167.232 35.9671C167.77 35.65 168.242 35.226 168.646 34.695L169.978 35.7531C169.7 36.1731 169.348 36.5734 168.92 36.9538C168.492 37.3342 167.965 37.6433 167.339 37.8811C166.72 38.1189 165.987 38.2378 165.139 38.2378ZM180.202 34.588C180.202 34.2709 180.131 33.9777 179.988 33.7082C179.853 33.4308 179.572 33.1812 179.144 32.9592C178.724 32.7294 178.09 32.5313 177.242 32.3648C176.528 32.2142 175.882 32.0359 175.304 31.8298C174.733 31.6238 174.246 31.3741 173.842 31.0808C173.445 30.7876 173.14 30.4428 172.926 30.0465C172.712 29.6502 172.605 29.1866 172.605 28.6556C172.605 28.1483 172.716 27.6688 172.938 27.2171C173.168 26.7653 173.489 26.365 173.901 26.0163C174.321 25.6676 174.824 25.3941 175.411 25.196C175.997 24.9978 176.651 24.8988 177.372 24.8988C178.403 24.8988 179.283 25.0811 180.012 25.4457C180.741 25.8102 181.3 26.2977 181.688 26.9079C182.076 27.5103 182.271 28.18 182.271 28.9171H180.071C180.071 28.5605 179.964 28.2157 179.75 27.8828C179.544 27.542 179.239 27.2606 178.835 27.0387C178.438 26.8168 177.951 26.7058 177.372 26.7058C176.762 26.7058 176.267 26.801 175.886 26.9912C175.514 27.1735 175.24 27.4073 175.066 27.6926C174.9 27.9779 174.816 28.2791 174.816 28.5961C174.816 28.8339 174.856 29.0479 174.935 29.2381C175.023 29.4204 175.173 29.5908 175.387 29.7493C175.601 29.8999 175.902 30.0426 176.291 30.1773C176.679 30.312 177.174 30.4468 177.777 30.5815C178.831 30.8193 179.699 31.1046 180.38 31.4375C181.062 31.7704 181.569 32.1786 181.902 32.662C182.235 33.1455 182.401 33.732 182.401 34.4215C182.401 34.9843 182.282 35.4994 182.045 35.9671C181.815 36.4347 181.478 36.8389 181.034 37.1797C180.598 37.5126 180.075 37.7741 179.465 37.9643C178.863 38.1466 178.185 38.2378 177.432 38.2378C176.299 38.2378 175.34 38.0357 174.555 37.6315C173.77 37.2272 173.176 36.7041 172.772 36.0622C172.367 35.4202 172.165 34.7425 172.165 34.0292H174.377C174.408 34.6316 174.583 35.1111 174.9 35.4677C175.217 35.8165 175.605 36.0661 176.065 36.2167C176.524 36.3594 176.98 36.4307 177.432 36.4307C178.034 36.4307 178.538 36.3514 178.942 36.1929C179.354 36.0344 179.667 35.8165 179.881 35.5391C180.095 35.2617 180.202 34.9446 180.202 34.588ZM187.49 27.6094V42.9457H185.278V25.1365H187.299L187.49 27.6094ZM196.156 31.4613V31.7109C196.156 32.6462 196.045 33.514 195.824 34.3145C195.602 35.1071 195.277 35.7966 194.849 36.3832C194.429 36.9697 193.91 37.4254 193.291 37.7503C192.673 38.0753 191.964 38.2378 191.163 38.2378C190.347 38.2378 189.626 38.103 189 37.8336C188.373 37.5641 187.842 37.1718 187.406 36.6566C186.971 36.1414 186.622 35.5232 186.36 34.802C186.107 34.0807 185.932 33.2683 185.837 32.3648V31.0333C185.932 30.0822 186.111 29.2302 186.372 28.4772C186.634 27.7243 186.978 27.0823 187.406 26.5513C187.842 26.0123 188.369 25.6042 188.988 25.3268C189.606 25.0414 190.319 24.8988 191.128 24.8988C191.936 24.8988 192.653 25.0573 193.279 25.3743C193.906 25.6834 194.433 26.1273 194.861 26.7058C195.289 27.2844 195.61 27.9779 195.824 28.7863C196.045 29.5868 196.156 30.4785 196.156 31.4613ZM193.945 31.7109V31.4613C193.945 30.8193 193.878 30.2169 193.743 29.6542C193.608 29.0836 193.398 28.5842 193.113 28.1563C192.836 27.7203 192.479 27.3795 192.043 27.1338C191.607 26.8802 191.088 26.7534 190.486 26.7534C189.931 26.7534 189.447 26.8485 189.035 27.0387C188.631 27.2289 188.286 27.4865 188.001 27.8115C187.716 28.1285 187.482 28.4931 187.299 28.9052C187.125 29.3094 186.994 29.7295 186.907 30.1654V33.2446C187.066 33.7994 187.288 34.3225 187.573 34.8139C187.858 35.2973 188.239 35.6897 188.714 35.9908C189.19 36.2841 189.788 36.4307 190.509 36.4307C191.104 36.4307 191.615 36.3079 192.043 36.0622C192.479 35.8085 192.836 35.4638 193.113 35.0279C193.398 34.5919 193.608 34.0926 193.743 33.5299C193.878 32.9592 193.945 32.3529 193.945 31.7109ZM198.38 31.7109V31.4375C198.38 30.5102 198.514 29.6502 198.784 28.8577C199.053 28.0572 199.442 27.3637 199.949 26.7772C200.456 26.1827 201.07 25.7231 201.792 25.3981C202.513 25.0652 203.321 24.8988 204.217 24.8988C205.12 24.8988 205.933 25.0652 206.654 25.3981C207.383 25.7231 208.001 26.1827 208.509 26.7772C209.024 27.3637 209.416 28.0572 209.686 28.8577C209.955 29.6502 210.09 30.5102 210.09 31.4375V31.7109C210.09 32.6382 209.955 33.4982 209.686 34.2908C209.416 35.0833 209.024 35.7768 208.509 36.3713C208.001 36.9578 207.387 37.4175 206.666 37.7503C205.953 38.0753 205.144 38.2378 204.241 38.2378C203.337 38.2378 202.525 38.0753 201.804 37.7503C201.082 37.4175 200.464 36.9578 199.949 36.3713C199.442 35.7768 199.053 35.0833 198.784 34.2908C198.514 33.4982 198.38 32.6382 198.38 31.7109ZM200.579 31.4375V31.7109C200.579 32.3529 200.654 32.9592 200.805 33.5299C200.955 34.0926 201.181 34.5919 201.483 35.0279C201.792 35.4638 202.176 35.8085 202.636 36.0622C203.095 36.3079 203.63 36.4307 204.241 36.4307C204.843 36.4307 205.37 36.3079 205.822 36.0622C206.282 35.8085 206.662 35.4638 206.963 35.0279C207.264 34.5919 207.49 34.0926 207.641 33.5299C207.799 32.9592 207.879 32.3529 207.879 31.7109V31.4375C207.879 30.8034 207.799 30.2051 207.641 29.6423C207.49 29.0717 207.26 28.5684 206.951 28.1325C206.65 27.6886 206.27 27.3399 205.81 27.0863C205.358 26.8327 204.827 26.7058 204.217 26.7058C203.615 26.7058 203.084 26.8327 202.624 27.0863C202.172 27.3399 201.792 27.6886 201.483 28.1325C201.181 28.5684 200.955 29.0717 200.805 29.6423C200.654 30.2051 200.579 30.8034 200.579 31.4375ZM220.338 34.588C220.338 34.2709 220.267 33.9777 220.124 33.7082C219.989 33.4308 219.708 33.1812 219.28 32.9592C218.86 32.7294 218.226 32.5313 217.378 32.3648C216.664 32.2142 216.018 32.0359 215.44 31.8298C214.869 31.6238 214.382 31.3741 213.977 31.0808C213.581 30.7876 213.276 30.4428 213.062 30.0465C212.848 29.6502 212.741 29.1866 212.741 28.6556C212.741 28.1483 212.852 27.6688 213.074 27.2171C213.304 26.7653 213.625 26.365 214.037 26.0163C214.457 25.6676 214.96 25.3941 215.547 25.196C216.133 24.9978 216.787 24.8988 217.508 24.8988C218.539 24.8988 219.418 25.0811 220.148 25.4457C220.877 25.8102 221.436 26.2977 221.824 26.9079C222.212 27.5103 222.406 28.18 222.406 28.9171H220.207C220.207 28.5605 220.1 28.2157 219.886 27.8828C219.68 27.542 219.375 27.2606 218.971 27.0387C218.574 26.8168 218.087 26.7058 217.508 26.7058C216.898 26.7058 216.403 26.801 216.022 26.9912C215.65 27.1735 215.376 27.4073 215.202 27.6926C215.036 27.9779 214.952 28.2791 214.952 28.5961C214.952 28.8339 214.992 29.0479 215.071 29.2381C215.158 29.4204 215.309 29.5908 215.523 29.7493C215.737 29.8999 216.038 30.0426 216.426 30.1773C216.815 30.312 217.31 30.4468 217.913 30.5815C218.967 30.8193 219.835 31.1046 220.516 31.4375C221.198 31.7704 221.705 32.1786 222.038 32.662C222.371 33.1455 222.537 33.732 222.537 34.4215C222.537 34.9843 222.418 35.4994 222.181 35.9671C221.951 36.4347 221.614 36.8389 221.17 37.1797C220.734 37.5126 220.211 37.7741 219.601 37.9643C218.998 38.1466 218.321 38.2378 217.568 38.2378C216.434 38.2378 215.475 38.0357 214.691 37.6315C213.906 37.2272 213.312 36.7041 212.907 36.0622C212.503 35.4202 212.301 34.7425 212.301 34.0292H214.512C214.544 34.6316 214.718 35.1111 215.036 35.4677C215.353 35.8165 215.741 36.0661 216.201 36.2167C216.66 36.3594 217.116 36.4307 217.568 36.4307C218.17 36.4307 218.673 36.3514 219.078 36.1929C219.49 36.0344 219.803 35.8165 220.017 35.5391C220.231 35.2617 220.338 34.9446 220.338 34.588ZM230.812 25.1365V26.8247H223.857V25.1365H230.812ZM226.211 22.0099H228.41V34.8139C228.41 35.2498 228.478 35.5787 228.612 35.8006C228.747 36.0225 228.921 36.1692 229.135 36.2405C229.349 36.3118 229.579 36.3475 229.825 36.3475C230.007 36.3475 230.197 36.3316 230.396 36.2999C230.602 36.2603 230.756 36.2286 230.859 36.2048L230.871 38C230.697 38.0555 230.467 38.107 230.182 38.1546C229.904 38.21 229.567 38.2378 229.171 38.2378C228.632 38.2378 228.137 38.1308 227.685 37.9168C227.233 37.7028 226.873 37.3461 226.603 36.8468C226.342 36.3396 226.211 35.6579 226.211 34.802V22.0099ZM240.976 35.8006V29.1787C240.976 28.6714 240.873 28.2315 240.667 27.859C240.469 27.4786 240.168 27.1853 239.764 26.9793C239.36 26.7732 238.86 26.6702 238.266 26.6702C237.711 26.6702 237.224 26.7653 236.804 26.9555C236.391 27.1457 236.066 27.3954 235.829 27.7045C235.599 28.0136 235.484 28.3465 235.484 28.7031H233.285C233.285 28.2434 233.403 27.7877 233.641 27.3359C233.879 26.8842 234.22 26.476 234.664 26.1114C235.115 25.7389 235.654 25.4457 236.28 25.2317C236.914 25.0097 237.62 24.8988 238.397 24.8988C239.332 24.8988 240.156 25.0573 240.869 25.3743C241.591 25.6914 242.153 26.1709 242.558 26.8128C242.97 27.4469 243.176 28.2434 243.176 29.2024V35.1943C243.176 35.6223 243.211 36.078 243.283 36.5615C243.362 37.045 243.477 37.4611 243.628 37.8098V38H241.333C241.222 37.7464 241.135 37.4095 241.072 36.9895C241.008 36.5615 240.976 36.1652 240.976 35.8006ZM241.357 30.2011L241.381 31.7466H239.157C238.531 31.7466 237.973 31.7981 237.481 31.9012C236.99 31.9963 236.578 32.1429 236.245 32.341C235.912 32.5392 235.658 32.7888 235.484 33.09C235.31 33.3833 235.222 33.728 235.222 34.1243C235.222 34.5285 235.313 34.8971 235.496 35.23C235.678 35.5628 235.952 35.8284 236.316 36.0265C236.689 36.2167 237.144 36.3118 237.683 36.3118C238.357 36.3118 238.951 36.1692 239.467 35.8838C239.982 35.5985 240.39 35.2498 240.691 34.8376C241 34.4255 241.167 34.0252 241.19 33.6369L242.13 34.695C242.074 35.0279 241.924 35.3964 241.678 35.8006C241.432 36.2048 241.103 36.5932 240.691 36.9657C240.287 37.3303 239.803 37.6354 239.241 37.8811C238.686 38.1189 238.06 38.2378 237.362 38.2378C236.49 38.2378 235.726 38.0674 235.068 37.7266C234.418 37.3858 233.911 36.93 233.546 36.3594C233.189 35.7808 233.011 35.1349 233.011 34.4215C233.011 33.732 233.146 33.1257 233.415 32.6026C233.685 32.0716 234.073 31.6317 234.58 31.2829C235.088 30.9263 235.698 30.6568 236.411 30.4745C237.125 30.2922 237.921 30.2011 238.801 30.2011H241.357Z" fill="white" />
    <defs>
        <filter id="filter0_d_57_1017" x="0.113403" y="0" width="335.773" height="68" filterUnits="userSpaceOnUse" color-interpolation-filters="sRGB">
            <feFlood flood-opacity="0" result="BackgroundImageFix" />
            <feColorMatrix in="SourceAlpha" type="matrix" values="0 0 0 0 0 0 0 0 0 0 0 0 0 0 0 0 0 0 127 0" result="hardAlpha" />
            <feMorphology radius="1" operator="dilate" in="SourceAlpha" result="effect1_dropShadow_57_1017" />
            <feOffset dy="5" />
            <feGaussianBlur stdDeviation="3" />
            <feComposite in2="hardAlpha" operator="out" />
            <feColorMatrix type="matrix" values="0 0 0 0 0 0 0 0 0 0 0 0 0 0 0 0 0 0 0.25 0" />
            <feBlend mode="normal" in2="BackgroundImageFix" result="effect1_dropShadow_57_1017" />
            <feBlend mode="normal" in="SourceGraphic" in2="effect1_dropShadow_57_1017" result="shape" />
        </filter>
        <linearGradient id="paint0_linear_57_1017" x1="303.278" y1="-51.5" x2="188.207" y2="150.21" gradientUnits="userSpaceOnUse">
            <stop stop-color="#26F786" stop-opacity="0.79" />
            <stop offset="0.770833" stop-color="#123D7E" stop-opacity="0.7" />
        </linearGradient>
    </defs>
</svg>
    