<svg width="30" height="33" viewBox="0 0 30 33" fill="none" xmlns="http://www.w3.org/2000/svg">
    <circle cx="15" cy="18" r="14.0323" stroke="#104949" stroke-width="1.93548" />
    <path d="M15.9844 23.2969H12.5C12.5104 22.3281 12.5938 21.5156 12.75 20.8594C12.9062 20.1927 13.1667 19.5885 13.5312 19.0469C13.9062 18.5052 14.401 17.9323 15.0156 17.3281C15.4948 16.8698 15.9271 16.4375 16.3125 16.0312C16.6979 15.6146 17.0052 15.1771 17.2344 14.7188C17.4635 14.25 17.5781 13.7135 17.5781 13.1094C17.5781 12.4531 17.4688 11.8958 17.25 11.4375C17.0312 10.9792 16.7083 10.6302 16.2812 10.3906C15.8646 10.151 15.3438 10.0312 14.7188 10.0312C14.1979 10.0312 13.7083 10.1354 13.25 10.3438C12.7917 10.5417 12.4219 10.8542 12.1406 11.2812C11.8594 11.6979 11.7083 12.25 11.6875 12.9375H7.92188C7.94271 11.625 8.25521 10.5208 8.85938 9.625C9.46354 8.72917 10.276 8.05729 11.2969 7.60938C12.3177 7.16146 13.4583 6.9375 14.7188 6.9375C16.1146 6.9375 17.3073 7.17708 18.2969 7.65625C19.2865 8.125 20.0417 8.8125 20.5625 9.71875C21.0938 10.6146 21.3594 11.6979 21.3594 12.9688C21.3594 13.8854 21.1771 14.7188 20.8125 15.4688C20.4479 16.2083 19.974 16.901 19.3906 17.5469C18.8073 18.1823 18.1771 18.8177 17.5 19.4531C16.9167 19.9844 16.5208 20.5625 16.3125 21.1875C16.1042 21.8021 15.9948 22.5052 15.9844 23.2969ZM12.1875 28.1719C12.1875 27.6094 12.3802 27.1354 12.7656 26.75C13.151 26.3542 13.6771 26.1562 14.3438 26.1562C15.0104 26.1562 15.5365 26.3542 15.9219 26.75C16.3073 27.1354 16.5 27.6094 16.5 28.1719C16.5 28.7344 16.3073 29.2135 15.9219 29.6094C15.5365 29.9948 15.0104 30.1875 14.3438 30.1875C13.6771 30.1875 13.151 29.9948 12.7656 29.6094C12.3802 29.2135 12.1875 28.7344 12.1875 28.1719Z" fill="#104949" />
</svg>
    