<svg width="28" height="28" viewBox="0 0 28 28" fill="none" xmlns="http://www.w3.org/2000/svg">
<path d="M24 6L21.6718 7.55213C21.2338 7.84417 20.7191 8 20.1926 8H14.7373C13.973 8 13.2681 8.41224 12.8934 9.07838V9.07838C12.3799 9.99125 12.6117 11.1424 13.4385 11.7855L16.4292 14.1116C18.3667 15.6186 19.5 17.9357 19.5 20.3903V20.3903C19.5 21.8908 19.1816 23.3742 18.5659 24.7425L18 26" stroke="#104949" stroke-opacity="0.85" stroke-width="2"/>
<path d="M1.33331 12L5.65078 11.2804C7.45563 10.9796 9.02037 12.5443 8.71956 14.3492L8.54021 15.4253C8.2191 17.3519 9.19212 19.2627 10.9391 20.1362V20.1362C12.338 20.8357 13.0634 22.4129 12.6841 23.9302L12 26.6667" stroke="#104949" stroke-opacity="0.85" stroke-width="2"/>
<circle cx="14" cy="14" r="12.3333" stroke="#104949" stroke-opacity="0.85" stroke-width="2"/>
</svg>
