<svg width="249" height="254" viewBox="0 0 249 254" fill="none" xmlns="http://www.w3.org/2000/svg">
    <g filter="url(#filter0_d_106_108)">
        <path fill-rule="evenodd" clip-rule="evenodd" d="M133.5 215.65C77.0841 215.65 31.35 169.916 31.35 113.5C31.35 57.0841 77.0841 11.35 133.5 11.35C189.916 11.35 235.65 57.0841 235.65 113.5C235.65 169.916 189.916 215.65 133.5 215.65ZM20 113.5C20 50.8157 70.8157 0 133.5 0C196.184 0 247 50.8157 247 113.5C247 176.184 196.184 227 133.5 227C70.8157 227 20 176.184 20 113.5ZM131.19 130.987V100.171C131.19 85.7996 131.984 75.9687 133.571 70.6785C131.631 69.9731 129.162 69.6204 126.165 69.6204C122.109 69.6204 118.891 71.7365 116.51 75.9687C110.779 86.1082 105.577 97.5261 100.904 110.223C96.3193 122.919 92.6602 134.734 89.927 145.667C86.312 134.381 83.4906 125.785 81.4627 119.877C79.5229 113.882 76.7897 106.564 73.2629 97.9229C69.7361 89.2823 66.2534 81.9642 62.8148 75.9687C60.2579 71.7365 57.1278 69.6204 53.4247 69.6204C51.1323 69.6204 48.5754 69.9731 45.754 70.6785C47.4292 76.3213 48.2668 84.0803 48.2668 93.9553V127.283C48.2668 130.369 48.2227 134.69 48.1345 140.244C48.0464 145.799 48.0023 149.282 48.0023 150.692C48.0023 153.426 48.4431 155.365 49.3248 156.512C50.2065 157.658 51.9258 158.231 54.4828 158.231C56.158 158.231 57.7891 157.878 59.3762 157.173C57.701 151.618 56.8633 142.889 56.8633 130.987V84.3007C61.4482 93.5585 66.6502 106.431 72.4694 122.919C78.3767 139.319 82.3885 149.899 84.5045 154.66C85.4744 156.952 87.6786 158.099 91.1172 158.099C92.4398 158.099 93.6301 157.922 94.6881 157.57C104.299 124.859 113.16 100.348 121.271 84.0362C121.271 96.2036 121.227 107.445 121.139 117.761C121.139 127.989 121.095 135.88 121.007 141.435V150.692C121.007 153.426 121.448 155.365 122.329 156.512C123.211 157.658 124.93 158.231 127.487 158.231C130.044 158.231 132.116 157.878 133.703 157.173C132.028 151.618 131.19 142.889 131.19 130.987ZM216.213 146.593C216.213 143.859 214.274 141.699 210.394 140.112C208.278 143.727 205.369 146.46 201.665 148.312C198.051 150.163 194.127 151.089 189.895 151.089C180.372 151.089 172.966 147.298 167.676 139.715C162.386 132.045 159.741 122.566 159.741 111.281C159.741 101.494 162.342 93.3381 167.544 86.8135C172.834 80.2008 179.623 76.8944 187.911 76.8944C191.967 76.8944 195.802 77.9966 199.417 80.2008C203.032 82.3169 205.677 85.5351 207.352 89.8554C212.378 89.0619 214.891 86.8576 214.891 83.2427C214.891 79.1869 212.554 75.7923 207.881 73.0591C203.208 70.2376 197.433 68.8269 190.556 68.8269C177.771 68.8269 167.632 72.8386 160.138 80.8621C152.643 88.7974 148.896 99.8186 148.896 113.926C148.896 127.416 152.643 138.349 160.138 146.725C167.632 155.013 177.595 159.157 190.027 159.157C197.433 159.157 203.649 157.878 208.675 155.321C213.701 152.676 216.213 149.767 216.213 146.593Z" fill="url(#paint0_linear_106_108)" />
    </g>
    <defs>
        <filter id="filter0_d_106_108" x="0.060811" y="0" width="248.473" height="253.841" filterUnits="userSpaceOnUse" color-interpolation-filters="sRGB">
            <feFlood flood-opacity="0" result="BackgroundImageFix" />
            <feColorMatrix in="SourceAlpha" type="matrix" values="0 0 0 0 0 0 0 0 0 0 0 0 0 0 0 0 0 0 127 0" result="hardAlpha" />
            <feOffset dx="-9.2027" dy="16.1047" />
            <feGaussianBlur stdDeviation="5.36824" />
            <feColorMatrix type="matrix" values="0 0 0 0 0 0 0 0 0 0 0 0 0 0 0 0 0 0 1 0" />
            <feBlend mode="normal" in2="BackgroundImageFix" result="effect1_dropShadow_106_108" />
            <feBlend mode="normal" in="SourceGraphic" in2="effect1_dropShadow_106_108" result="shape" />
        </filter>
        <linearGradient id="paint0_linear_106_108" x1="211.723" y1="21.0895" x2="49.9088" y2="202.843" gradientUnits="userSpaceOnUse">
            <stop offset="0.00679568" stop-color="#122B42" />
            <stop offset="1" stop-color="#42D89A" />
        </linearGradient>
    </defs>
</svg>
    