<svg width="174" height="174" viewBox="0 0 174 174" fill="none" xmlns="http://www.w3.org/2000/svg">
    <path fill-rule="evenodd" clip-rule="evenodd" d="M87 165.3C43.7561 165.3 8.7 130.244 8.7 87C8.7 43.7561 43.7561 8.7 87 8.7C130.244 8.7 165.3 43.7561 165.3 87C165.3 130.244 130.244 165.3 87 165.3ZM0 87C0 38.9512 38.9512 0 87 0C135.049 0 174 38.9512 174 87C174 135.049 135.049 174 87 174C38.9512 174 0 135.049 0 87ZM85.2295 101.151V77.5301C85.2295 66.5139 85.8378 58.9783 87.0543 54.9233C85.5675 54.3826 83.6751 54.1123 81.3773 54.1123C78.2684 54.1123 75.8016 55.7343 73.9768 58.9783C69.5839 66.7505 65.5964 75.5026 62.0145 85.2346C58.5001 94.9667 55.6954 104.023 53.6003 112.403C50.8294 103.753 48.6667 97.1632 47.1123 92.6351C45.6254 88.0394 43.5303 82.4299 40.827 75.8067C38.1236 69.1835 35.4541 63.574 32.8183 58.9783C30.8584 55.7343 28.4591 54.1123 25.6206 54.1123C23.8634 54.1123 21.9035 54.3826 19.7408 54.9233C21.0249 59.2487 21.667 65.1961 21.667 72.7654V98.3121C21.667 100.678 21.6332 103.989 21.5656 108.247C21.498 112.505 21.4642 115.174 21.4642 116.256C21.4642 118.351 21.8021 119.838 22.478 120.716C23.1538 121.595 24.4717 122.034 26.4316 122.034C27.7157 122.034 28.966 121.764 30.1825 121.223C28.8984 116.965 28.2564 110.274 28.2564 101.151V65.365C31.7707 72.4613 35.7582 82.3286 40.2187 94.9667C44.7468 107.537 47.8219 115.647 49.4439 119.297C50.1873 121.054 51.8769 121.933 54.5127 121.933C55.5265 121.933 56.4388 121.797 57.2498 121.527C64.6165 96.4536 71.4086 77.6653 77.6264 65.1623C77.6264 74.4888 77.5926 83.1058 77.525 91.0131C77.525 98.8528 77.4912 104.902 77.4236 109.159V116.256C77.4236 118.351 77.7615 119.838 78.4374 120.716C79.1132 121.595 80.4311 122.034 82.391 122.034C84.3509 122.034 85.9392 121.764 87.1557 121.223C85.8716 116.965 85.2295 110.274 85.2295 101.151ZM150.401 113.113C150.401 111.018 148.915 109.362 145.941 108.146C144.319 110.916 142.089 113.012 139.25 114.431C136.479 115.85 133.472 116.56 130.228 116.56C122.929 116.56 117.252 113.654 113.197 107.841C109.142 101.962 107.114 94.6964 107.114 86.0457C107.114 78.5439 109.108 72.2924 113.095 67.2912C117.15 62.2224 122.354 59.688 128.707 59.688C131.816 59.688 134.756 60.5328 137.527 62.2224C140.298 63.8444 142.325 66.3112 143.609 69.6228C147.462 69.0145 149.388 67.325 149.388 64.554C149.388 61.4452 147.597 58.8432 144.015 56.7481C140.433 54.5854 136.006 53.5041 130.735 53.5041C120.935 53.5041 113.163 56.5791 107.418 62.7292C101.674 68.8118 98.8012 77.2598 98.8012 88.0732C98.8012 98.4135 101.674 106.794 107.418 113.214C113.163 119.567 120.8 122.744 130.329 122.744C136.006 122.744 140.771 121.764 144.623 119.804C148.475 117.776 150.401 115.546 150.401 113.113Z" fill="url(#paint0_linear_93_114)" />
    <defs>
        <linearGradient id="paint0_linear_93_114" x1="133" y1="9.49999" x2="33.5" y2="159" gradientUnits="userSpaceOnUse">
            <stop stop-color="#141F47" />
            <stop offset="1" stop-color="#0D6F11" stop-opacity="0.71" />
        </linearGradient>
    </defs>
</svg>
    