<svg width="20" height="26" viewBox="0 0 20 26" fill="none" xmlns="http://www.w3.org/2000/svg">
<path d="M14.375 3.25C16.1306 3.25 17.0084 3.25 17.6389 3.67133C17.9119 3.85372 18.1463 4.0881 18.3287 4.36107C18.75 4.99163 18.75 5.86942 18.75 7.625V19.5C18.75 21.857 18.75 23.0355 18.0178 23.7678C17.2855 24.5 16.107 24.5 13.75 24.5H6.25C3.89298 24.5 2.71447 24.5 1.98223 23.7678C1.25 23.0355 1.25 21.857 1.25 19.5V7.625C1.25 5.86942 1.25 4.99163 1.67133 4.36107C1.85372 4.0881 2.0881 3.85372 2.36107 3.67133C2.99163 3.25 3.86942 3.25 5.625 3.25" stroke="#104949" stroke-opacity="0.85" stroke-width="2"/>
<path d="M5.71423 3.25C5.71423 1.86929 7.36924 0.75 8.74995 0.75H11.2499C12.6307 0.75 14.2857 1.86929 14.2857 3.25C14.2857 4.63071 12.6307 5.75 11.2499 5.75H8.74995C7.36924 5.75 5.71423 4.63071 5.71423 3.25Z" fill="#104949" fill-opacity="0.85" stroke="#104949" stroke-opacity="0.85"/>
<path d="M6.25 12L14.8214 12" stroke="#104949" stroke-opacity="0.85" stroke-width="1.80857" stroke-linecap="round"/>
<path d="M6.25 17L12.25 17" stroke="#104949" stroke-opacity="0.85" stroke-width="1.80857" stroke-linecap="round"/>
</svg>
