<svg width="33" height="27" viewBox="0 0 33 27" fill="none" xmlns="http://www.w3.org/2000/svg">
<path d="M27.6042 9.08334V21.8958C27.6042 23.5065 27.6042 24.3118 27.1038 24.8122C26.6035 25.3125 25.7982 25.3125 24.1875 25.3125H8.81252C7.20189 25.3125 6.39657 25.3125 5.89621 24.8122C5.39585 24.3118 5.39585 23.5065 5.39585 21.8958V9.08334" stroke="#104949" stroke-width="2"/>
<path d="M1.97915 11.6458L15.5148 2.09126C16.1054 1.67435 16.8945 1.67435 17.4851 2.09126L31.0208 11.6458" stroke="#104949" stroke-width="2" stroke-linecap="round"/>
<path d="M12.2291 24.4583V17.625C12.2291 15.738 13.7588 14.2083 15.6458 14.2083H17.3541C19.2411 14.2083 20.7708 15.738 20.7708 17.625V24.4583" stroke="#104949" stroke-width="2" stroke-linejoin="round"/>
<path d="M7.10419 7.37501V1.39584" stroke="#104949" stroke-width="2" stroke-linecap="round"/>
</svg>
